<svg xmlns="http://www.w3.org/2000/svg" viewBox="0 0 100 100" fill="none">
  <rect width="100" height="100" rx="22" fill="#F15A29"/>
  <g fill="#ffffff">
    <circle cx="50" cy="50" r="5"/>
    <circle cx="67" cy="50" r="4.1"/>
    <circle cx="62" cy="62" r="4.1"/>
    <circle cx="50" cy="67" r="4.1"/>
    <circle cx="38" cy="62" r="4.1"/>
    <circle cx="33" cy="50" r="4.1"/>
    <circle cx="38" cy="38" r="4.1"/>
    <circle cx="50" cy="33" r="4.1"/>
    <circle cx="62" cy="38" r="4.1"/>
    <circle cx="81" cy="50" r="3.6"/>
    <circle cx="74" cy="69" r="3.6"/>
    <circle cx="57" cy="80" r="3.6"/>
    <circle cx="36" cy="80" r="3.6"/>
    <circle cx="22" cy="65" r="3.6"/>
    <circle cx="19" cy="44" r="3.6"/>
    <circle cx="29" cy="26" r="3.6"/>
    <circle cx="47" cy="19" r="3.6"/>
    <circle cx="68" cy="23" r="3.6"/>
    <circle cx="80" cy="36" r="3.6"/>
  </g>
</svg>
